<svg width="56" height="56" viewBox="0 0 56 56" fill="none" xmlns="http://www.w3.org/2000/svg">
<path fill-rule="evenodd" clip-rule="evenodd" d="M12.1549 0.873022C22.6861 -0.291007 33.3137 -0.291007 43.8449 0.873022C49.6757 1.52546 54.3799 6.10948 55.064 11.9508C56.312 22.614 56.312 33.386 55.064 44.0492C54.3799 49.8905 49.6757 54.4745 43.8449 55.127C33.3137 56.291 22.6861 56.291 12.1549 55.127C6.32407 54.4745 1.61993 49.8905 0.935753 44.0492C-0.311918 33.3871 -0.311918 22.6163 0.935753 11.9542C1.28182 9.11635 2.57771 6.47833 4.6134 4.46768C6.6491 2.45702 9.30529 1.19157 12.1515 0.87642M27.9999 11.0333C28.677 11.0333 29.3263 11.3018 29.8051 11.7798C30.2838 12.2577 30.5528 12.906 30.5528 13.5819V25.4514H42.4425C43.1196 25.4514 43.7689 25.7199 44.2477 26.1979C44.7264 26.6758 44.9954 27.3241 44.9954 28C44.9954 28.6759 44.7264 29.3242 44.2477 29.8021C43.7689 30.2801 43.1196 30.5486 42.4425 30.5486H30.5528V42.4181C30.5528 43.094 30.2838 43.7423 29.8051 44.2202C29.3263 44.6982 28.677 44.9667 27.9999 44.9667C27.3228 44.9667 26.6735 44.6982 26.1947 44.2202C25.716 43.7423 25.447 43.094 25.447 42.4181V30.5486H13.5573C12.8802 30.5486 12.2309 30.2801 11.7521 29.8021C11.2734 29.3242 11.0044 28.6759 11.0044 28C11.0044 27.3241 11.2734 26.6758 11.7521 26.1979C12.2309 25.7199 12.8802 25.4514 13.5573 25.4514H25.447V13.5819C25.447 12.906 25.716 12.2577 26.1947 11.7798C26.6735 11.3018 27.3228 11.0333 27.9999 11.0333Z" fill="#0B2545"/>
</svg>
