<svg width="55" height="44" viewBox="0 0 55 44" fill="none" xmlns="http://www.w3.org/2000/svg">
<path d="M1.849 18.82C1.0063 19.6638 0.532959 20.8075 0.532959 22C0.532959 23.1925 1.0063 24.3363 1.849 25.18L18.817 42.154C19.235 42.572 19.7312 42.9036 20.2774 43.1298C20.8235 43.356 21.4089 43.4724 22 43.4724C22.5911 43.4724 23.1765 43.356 23.7226 43.1298C24.2688 42.9036 24.765 42.572 25.183 42.154C25.601 41.736 25.9326 41.2398 26.1588 40.6936C26.385 40.1475 26.5014 39.5621 26.5014 38.971C26.5014 38.3799 26.385 37.7945 26.1588 37.2484C25.9326 36.7022 25.601 36.206 25.183 35.788L15.895 26.5H50.5C51.6935 26.5 52.8381 26.0259 53.682 25.182C54.5259 24.3381 55 23.1935 55 22C55 20.8065 54.5259 19.6619 53.682 18.818C52.8381 17.9741 51.6935 17.5 50.5 17.5H15.895L25.183 8.212C26.0268 7.36782 26.5007 6.22302 26.5004 5.02944C26.5001 3.83587 26.0257 2.69129 25.1815 1.8475C24.3373 1.00372 23.1925 0.52984 21.9989 0.530121C20.8054 0.530402 19.6608 1.00482 18.817 1.849L1.849 18.82Z" fill="#0B2545"/>
</svg>
