<svg width="55" height="44" viewBox="0 0 55 44" fill="none" xmlns="http://www.w3.org/2000/svg">
<path d="M53.1511 25.18C53.9938 24.3362 54.4671 23.1925 54.4671 22C54.4671 20.8075 53.9938 19.6637 53.1511 18.82L36.1831 1.84599C35.7651 1.42799 35.2688 1.09642 34.7227 0.870205C34.1765 0.643986 33.5912 0.527554 33.0001 0.527554C32.4089 0.527554 31.8236 0.643986 31.2774 0.870205C30.7313 1.09642 30.2351 1.42799 29.8171 1.84599C29.3991 2.26399 29.0675 2.76023 28.8413 3.30637C28.6151 3.85251 28.4986 4.43785 28.4986 5.029C28.4986 5.62013 28.6151 6.20548 28.8413 6.75162C29.0675 7.29776 29.3991 7.79399 29.8171 8.21199L39.1051 17.5L4.50006 17.5C3.30659 17.5 2.162 17.9741 1.31808 18.818C0.474171 19.6619 6.10352e-05 20.8065 6.10352e-05 22C6.10352e-05 23.1935 0.474171 24.3381 1.31808 25.182C2.162 26.0259 3.30659 26.5 4.50006 26.5L39.1051 26.5L29.8171 35.788C28.9733 36.6322 28.4994 37.777 28.4997 38.9706C28.5 40.1641 28.9744 41.3087 29.8186 42.1525C30.6627 42.9963 31.8075 43.4702 33.0011 43.4699C34.1947 43.4696 35.3393 42.9952 36.1831 42.151L53.1511 25.18Z" fill="#0B2545"/>
</svg>
